<?xml version="1.0" encoding="utf-8"?>
<!-- Generator: Adobe Illustrator 19.2.0, SVG Export Plug-In . SVG Version: 6.00 Build 0)  -->
<svg version="1.1" id="Layer_1" xmlns="http://www.w3.org/2000/svg" xmlns:xlink="http://www.w3.org/1999/xlink" x="0px" y="0px"
	 viewBox="0 0 129.3 129.3" style="enable-background:new 0 0 129.3 129.3;" xml:space="preserve">
<style type="text/css">
	.st0{fill:#7D9DB8;}
	.st1{fill:#FFFFFF;}
</style>
<path class="st0" d="M111,129.3H18.3C8.2,129.3,0,121.1,0,111V18.3C0,8.2,8.2,0,18.3,0H111c10.1,0,18.3,8.2,18.3,18.3V111
	C129.3,121.1,121.1,129.3,111,129.3z"/>
<path class="st1" d="M103.2,69.9c0.8,5.4,1.6,10.8-0.8,16.1c-2.6,5.8-7.5,7.1-12.3,2.9c-3.1-2.7-6.3-5.5-8.8-8.8
	c-9.2-12.2-26.8-10.9-35.9,2.2c-2,2.8-4.4,4.9-7,7c-4.2,3.3-8.5,2.3-11.2-2.3c-1.7-2.7-2-5.9-1.8-8.6c0.8-11.5,3.7-22.6,10.2-32.3
	c4.7-6.9,12.6-10.4,19.8-6.3c6,3.5,12.4,3.1,18.5,0.1c7.6-3.7,13.8-1.7,18.6,4.4C96.9,49.9,102,61.4,103.2,69.9z"/>
<g>
	<circle class="st0" cx="75.9" cy="59.7" r="2.5"/>
	<circle class="st0" cx="86" cy="59.7" r="2.5"/>
	<path class="st0" d="M51.7,57.1h-1.6v-1.6c0-1.4-1.1-2.5-2.5-2.5S45,54.1,45,55.5v1.6h-1.6c-1.4,0-2.5,1.1-2.5,2.5v0
		c0,1.4,1.1,2.5,2.5,2.5H45v1.6c0,1.4,1.1,2.5,2.5,2.5s2.5-1.1,2.5-2.5v-1.6h1.6c1.4,0,2.5-1.1,2.5-2.5v0
		C54.2,58.3,53.1,57.1,51.7,57.1z"/>
</g>
</svg>
