<?xml version="1.0" encoding="utf-8"?>
<!-- Generator: Adobe Illustrator 19.2.0, SVG Export Plug-In . SVG Version: 6.00 Build 0)  -->
<svg version="1.1" id="Layer_1" xmlns="http://www.w3.org/2000/svg" xmlns:xlink="http://www.w3.org/1999/xlink" x="0px" y="0px"
	 viewBox="0 0 500.8 499.8" style="enable-background:new 0 0 500.8 499.8;" xml:space="preserve">
<style type="text/css">
	.st0{display:none;}
	.st1{display:inline;}
	.st2{fill:#EF3F3F;}
	.st3{fill:#23408D;}
	.st4{display:inline;fill:#FFFFFF;}
	.st5{fill:#F47B23;}
</style>
<g>
	<path class="st5" d="M294.9,151.5c1.7,2.8,3.1,5.1,5.3,8.7c3.7-5.9,6.7-10.8,9.6-15.6c-1-1-2-2-3-2.9
		C303,144.9,299.2,148,294.9,151.5z"/>
	<path class="st5" d="M408.3,0.4H92.5C42.1,0.4,0.9,41.6,0.9,92v315.7c0,50.4,41.2,91.6,91.6,91.6h315.7c50.4,0,91.6-41.2,91.6-91.6
		V92C499.9,41.6,458.7,0.4,408.3,0.4z M397,133.5c-11.8-1.2-23.3-2-34.7,3.3c-4,1.8-9.5,0.4-14.3,0.4c-21.4,0-26.8,6.7-22.4,25.3
		c-2.7,5.6-5.4,9.3-6.5,13.5c-4,15-15.3,21.3-29.8,15.6c-6.4-2.5-12.5-5.9-21.6-10.3c1.2,4.5,1.7,7.3,2.7,9.9
		c1.1,2.9,3.8,5.7,3.8,8.5c0,9-0.3,18.1-1.7,26.9c-1,6.3-3.7,12.5-13.4,8.1c-0.5,0.7-1.1,1.3-1.6,2c1.8,4.9,3,10.1,5.5,14.6
		c5.8,10.4,12.5,20.4,18.5,30.7c12,20.4,15.4,41.9,9.9,65.2c-2.4,10.2-1.8,21.2-2.4,31.9c-0.5,9.1,7.1,20.6,15.8,24.3
		c2.5,1.1,5.3,1.7,7.4,3.3c1.6,1.3,3.4,3.8,3.2,5.6c-0.1,1.4-3.1,3.5-4.9,3.6c-7.2,0.4-14.4,0.3-21.5-0.1c-6.5-0.3-12.9-1.5-19.4-2
		c-8.7-0.5-6.7-6.5-5.2-11.1c4.5-13,3.9-25.7,0-38.7c-1.8-6-2.8-12.4-2.8-18.6c0-7,1.3-14,2.4-21c0.9-5.9,0.3-9.9-7.2-10.4
		c-2.7-0.2-5.9-2.6-7.8-4.9c-8.8-10.4-17.2-21-25.7-31.6c-1.4,0.2-2.7,0.4-4.1,0.6c-4.6,12.4-8.7,25-13.9,37.1
		c-2.4,5.6-7.2,10-10.7,15.2c-2,2.9-4.8,6-5,9.2c-1.2,16.3-8.5,29.5-17,43.1c-4.7,7.5-3.4,18.9-4.4,28.5c-0.3,2.7,1,5.6,1.8,10
		c-6.7,0.4-11.8,1.2-16.8,0.8c-9.3-0.7-11.1-3.4-9.4-12.9c0.8-4.7,2.7-9.3,3.3-14c1.1-7.8,1.5-15.6,2.3-23.5
		c0.3-2.7,0.2-5.6,1.2-7.9c6.3-14.4,13-28.7,19.2-43.1c1.7-3.9,2.3-8.4,2.9-12.7c0.6-4.5,0.7-9,0.9-13.5c0.4-11.1,0.6-22.2,1.3-33.3
		c0.2-3.4,1.9-6.8,2.1-10.2c0.5-6.3,1.3-12.8,0.5-19.1c-1.5-11.8-1.4-14.2,5.1-19.7c-3.1-1.2-6-2.3-9.3-3.5
		c0.9-10.2,1.5-20.3,3-30.4c0.3-1.8,4.1-4.3,6.3-4.3c6.7,0,7.9-2.7,7.2-8.9c-1.4-12.2,0.4-24,6.8-34.8c7.1-11.9,16.9-15.8,30.1-11.6
		c-0.4-4.3-1.1-8.3-1.2-12.3c-0.2-12.8,5.6-22.4,16-26.8c9.3-4,22.9-0.9,30.9,7c6,6,4.8,21.8-1.3,27.2c-2.1,1.8-2.2,5.9-3.5,9.6
		c14-0.2,16.3-1.4,18.1-6.6c4.9,1.7,9.7,4.6,14.6,4.8c18.7,0.6,37.3,0.2,56,0.3c3.4,0,6.8,0.7,10.7,1.2c0.3-2.6,0.7-6.3,1.2-11.4
		c1.9,5.3,2.7,9.4,4.7,12.8c5.5,9.3,14.3,4.7,22,4.7c4.4,0,8.8,0,13.2,0c0.1,1.1,0.1,2.1,0.2,3.2C404.5,132.7,400.7,133.9,397,133.5
		z"/>
</g>
<g class="st0">
	<path class="st1" d="M175.4,270.7c-12.3-0.1-24.6,0-37,0c-1.8,0-3.5,0-5.3,0c0-4.3,0-7.9,0-11.9c19.3,0,38.2,0,57.5,0
		c-1.8-8.7-6.8-14-14.1-14.2c-15.3-0.3-30.6-0.3-45.9,0c-6.8,0.2-11.5,4.5-13.4,10.9c-1,3.4-1,7.2-1,10.8
		c-0.1,12.4,6.3,18.9,18.6,18.9c11.8,0.1,23.7,0,35.5,0c1.7,0,3.5,0.2,5.2,0.3c0,4.2,0,7.8,0,11.9c-19.7,0-39.1,0-58.5,0
		c0.7,8.1,6.3,14,13.9,14.2c15.5,0.3,31,0.3,46.5,0c8-0.1,14.2-7,14.6-15c0.1-3.2,0.1-6.3,0.1-9.5
		C191.9,277.4,185.3,270.7,175.4,270.7z"/>
	<path class="st1" d="M334.2,272.3c1.8,7.5,5.8,10.8,13.5,10.9c7.1,0.1,14.2,0,21.3,0c0,5.3,0,9.7,0,14.2c-15.8,0-31.3,0-46.6,0
		c0-13.8,0-27.2,0-41c20.5,0,40.6,0,60.7,0c-1.3-7.9-7-12.7-15-12.8c-14.7-0.1-29.3-0.1-44,0c-10.2,0-16.4,6.3-16.5,16.5
		c-0.1,11.7-0.1,23.3,0,35c0.1,9.5,5.7,16,15.3,16.2c15.3,0.4,30.6,0.4,46,0c8.6-0.2,14.7-6.5,14.9-14.5c0.2-8,0.1-16,0.1-24.6
		C366.9,272.3,350.6,272.3,334.2,272.3z"/>
	<path class="st1" d="M470.7,260.1c-0.3-10.4-6.9-16.4-17.4-16.4c-13.2,0-26.3,0-39.5,0c-10.4,0-16.8,6.4-16.8,16.9
		c-0.1,11.3-0.1,22.7,0,34c0.1,10.5,6.3,16.8,16.8,16.9c6.7,0.1,13.3,0,20,0s13.3,0.1,20,0c10.2-0.2,16.7-6.3,17-16.4
		C471,283.4,471.1,271.7,470.7,260.1z M455.7,298.7c-14.6,0-28.9,0-43.5,0c0-13.9,0-27.8,0-42c14.5,0,28.9,0,43.5,0
		C455.7,270.5,455.7,284.3,455.7,298.7z"/>
	<path class="st1" d="M48.3,259.1c18.5,0,36.5,0,54.6,0c-0.4-8.3-5.8-14.3-13.9-14.5c-15-0.4-29.9-0.3-44.9,0
		c-7.8,0.2-14.1,7-14.2,14.7c-0.2,12.5-0.2,25,0,37.4c0.1,7.7,6.5,14.7,14.1,14.8c15.1,0.3,30.3,0.3,45.4,0
		c7.6-0.2,13.3-6.8,13.5-15c-18.2,0-36.4,0-54.7,0C48.3,283.9,48.3,271.7,48.3,259.1z"/>
</g>
<g class="st0">
	<path class="st1" d="M169.8,421.2c-6.7,0.4-11.8,1.2-16.8,0.8c-9.3-0.7-11.1-3.4-9.4-12.9c0.8-4.7,2.7-9.3,3.3-14
		c1.1-7.8,1.5-15.6,2.3-23.5c0.3-2.7,0.2-5.6,1.2-7.9c6.3-14.4,13-28.7,19.2-43.1c1.7-3.9,2.3-8.4,2.9-12.7c0.6-4.5,0.7-9,0.9-13.5
		c0.4-11.1,0.6-22.2,1.3-33.3c0.2-3.4,1.9-6.8,2.1-10.2c0.5-6.3,1.3-12.8,0.5-19.1c-1.5-11.8-1.4-14.2,5.1-19.7
		c-3.1-1.2-6-2.3-9.3-3.5c0.9-10.2,1.5-20.3,3-30.4c0.3-1.8,4.1-4.3,6.3-4.3c6.7,0,7.9-2.7,7.2-8.9c-1.4-12.2,0.4-24,6.8-34.8
		c7.1-11.9,16.9-15.8,30.1-11.6c-0.4-4.3-1.1-8.3-1.2-12.3c-0.2-12.8,5.6-22.4,16-26.8c9.3-4,22.9-0.9,30.9,7c6,6,4.8,21.8-1.3,27.2
		c-2.1,1.8-2.2,5.9-3.5,9.6c14-0.2,16.3-1.4,18.1-6.6c4.9,1.7,9.7,4.6,14.6,4.8c18.7,0.6,37.3,0.2,56,0.3c3.4,0,6.8,0.7,10.7,1.2
		c0.3-2.6,0.7-6.3,1.2-11.4c1.9,5.3,2.7,9.4,4.7,12.8c5.5,9.3,14.3,4.7,22,4.7c4.4,0,8.8,0,13.2,0c0.1,1.1,0.1,2.1,0.2,3.2
		c-3.8,0.4-7.6,1.6-11.3,1.2c-11.8-1.2-23.3-2-34.7,3.3c-4,1.8-9.5,0.4-14.3,0.4c-21.4,0-26.8,6.7-22.4,25.3
		c-2.7,5.6-5.4,9.3-6.5,13.5c-4,15-15.3,21.3-29.8,15.6c-6.4-2.5-12.5-5.9-21.6-10.3c1.2,4.5,1.7,7.3,2.7,9.9
		c1.1,2.9,3.8,5.7,3.8,8.5c0,9-0.3,18.1-1.7,26.9c-1,6.3-3.7,12.5-13.4,8.1c-0.5,0.7-1.1,1.3-1.6,2c1.8,4.9,3,10.1,5.5,14.6
		c5.8,10.4,12.5,20.4,18.5,30.7c12,20.4,15.4,41.9,9.9,65.2c-2.4,10.2-1.8,21.2-2.4,31.9c-0.5,9.1,7.1,20.6,15.8,24.3
		c2.5,1.1,5.3,1.7,7.4,3.3c1.6,1.3,3.4,3.8,3.2,5.6c-0.1,1.4-3.1,3.5-4.9,3.6c-7.2,0.4-14.4,0.3-21.5-0.1c-6.5-0.3-12.9-1.5-19.4-2
		c-8.7-0.5-6.7-6.5-5.2-11.1c4.5-13,3.9-25.7,0-38.7c-1.8-6-2.8-12.4-2.8-18.6c0-7,1.3-14,2.4-21c0.9-5.9,0.3-9.9-7.2-10.4
		c-2.7-0.2-5.9-2.6-7.8-4.9c-8.8-10.4-17.2-21-25.7-31.6c-1.4,0.2-2.7,0.4-4.1,0.6c-4.6,12.4-8.7,25-13.9,37.1
		c-2.4,5.6-7.2,10-10.7,15.2c-2,2.9-4.8,6-5,9.2c-1.2,16.3-8.5,29.5-17,43.1c-4.7,7.5-3.4,18.9-4.4,28.5
		C167.7,413.9,169,416.8,169.8,421.2z M309.8,144.7c-1-1-2-2-3-2.9c-3.8,3.1-7.6,6.2-11.9,9.8c1.7,2.8,3.1,5.1,5.3,8.7
		C303.9,154.3,306.8,149.5,309.8,144.7z"/>
</g>
</svg>
